<?xml version="1.0" encoding="utf-8"?>
<!-- Generator: Adobe Illustrator 24.1.1, SVG Export Plug-In . SVG Version: 6.00 Build 0)  -->
<svg version="1.1" id="Capa_1" xmlns="http://www.w3.org/2000/svg" xmlns:xlink="http://www.w3.org/1999/xlink" x="0px" y="0px"
	 viewBox="0 0 380 664" style="enable-background:new 0 0 380 664;" xml:space="preserve">
<style type="text/css">
	.st0{fill:#DDB459;}
</style>
<g>
	<path class="st0" d="M380,0.6V0h-0.3H285H0v111l0.1-0.1l94.7,55.1H0v0.3h94.6l-94.4,55l-0.1,0.1L0,221.3v0.3v110.1v0.9v110.1v0.3
		l0.1-0.1L68,482.4c-2.6,4.7-4.1,10-4.1,15.3c0,0.1,0,0.2,0,0.3v0H0v0.3h63.8c0,5.4,1.5,10.8,4.2,15.5L0.3,553.3l-0.1,0.1L0,553.3
		V664h0.6L95,609h0.1l94.5,55h0.9l94.5-55v-0.1v0l60.3,35.1l34.4,20h0.3v-0.3l-94.5-165.1l94.5,55.1v-0.3l-94.4-55H380V498h-94.6
		l94.6-55.1v-0.2l-94.6,55l81.3-142.1l13.2-23v-1l-79.1-138.2c4.7-2.7,8.5-6.7,11.3-11.3l67.9,39.5v-0.3l-67.8-39.4
		c2.7-4.7,4.1-10.1,4.1-15.5H380v-0.3h-63.6V166c0-0.1,0-0.2,0-0.3c-0.1-5.4-1.5-10.6-4.1-15.3L380,111v-0.3l-0.1,0.1l-67.7,39.4
		c-2.7-4.7-6.6-8.6-11.3-11.4L340,70.4L380,0.6z M285,0.3h94.6l-19.1,11.1l-75.6,44v-0.1l-35.2-20.5L190.5,0.3H285z M285,55.5v79
		c-5.4,0-10.7,1.4-15.4,4.2l-66-115.4L190.4,0.5L285,55.5z M190.2,0.6l79.1,138.2c-4.7,2.8-8.6,6.7-11.3,11.4l-67.7-39.5l-0.1-0.1
		V0.6z M257.9,150.5c-2.7,4.7-4.1,10-4.1,15.3c0,0.1,0,0.2,0,0.3v0H95.4l94.7-55.1L257.9,150.5z M285.1,387.3l-94.5-55h189
		L285.1,387.3z M122.3,482.4l67.9-39.5l94.7,55.2H126.4V498c0-0.1,0-0.2,0-0.3C126.3,492.4,124.9,487.1,122.3,482.4z M95,387.2
		l-35.2-20.5L0.6,332.3h94.5h94.6l-19.1,11.1l-75.5,44L95,387.2L95,387.2z M95,387.5v79c-5.4,0-10.7,1.5-15.4,4.2l-66-115.4
		L0.5,332.5L95,387.5z M95.3,166.7l94.5,165.1l-17.5-10.2l-77-44.8L95.3,166.7z M95.5,166.5l94.5,55.1v0.1v109.9L95.5,166.5z
		 M155.3,312l34.4,20H95H0.6L95,277h0.1v-0.1L155.3,312z M189.8,332.5l-79.1,138.2c-4.7-2.7-10-4.1-15.4-4.2l0-79L189.8,332.5z
		 M150,402.4l40-69.8v109.9v0.1l-0.1,0.1l-67.7,39.5c-2.7-4.7-6.6-8.6-11.3-11.4L150,402.4z M190.2,442.7V332.6l3.4,5.9l91.1,159.2
		l-94.4-55L190.2,442.7z M230.4,402.1l-29.6-51.8l-10.2-17.8l94.4,55l0.1,0.1l0,0.1v109.9L230.4,402.1z M190.6,332l94.5-55l94.5,55
		H190.6z M285,276.7l-0.1,0.1l-94.4,55l39.9-69.6l39.3-68.6c4.7,2.7,10,4.2,15.4,4.2V276.7z M190.3,331.6V221.6l67.9-39.5
		c2.7,4.7,6.6,8.6,11.3,11.4h0L190.3,331.6z M190.3,221.3l-0.1,0.1l-0.2-0.1l-94.4-55h158.2c0,5.5,1.5,10.8,4.1,15.5L190.3,221.3z
		 M190,110.5v0.1l-0.1,0.1l-94.4,55l81.3-142.2l13.2-23L190,110.5z M149.9,70.1l-54.6,95.5V55.5l0.1-0.1l94.4-55L149.9,70.1z
		 M189.6,0.3l-94.5,55h0L0.6,0.3H189.6z M0.4,110.8l-0.1-0.1V0.6l3.4,5.9l91.1,159.2L0.4,110.8z M40.3,70.1L10.7,18.3L0.5,0.5
		l94.4,55l0.1,0.1l0,0.1v109.9L40.3,70.1z M95,166.5l0.1,110.2l-69.9,40.6L0.5,331.8L95,166.5z M0.3,221.7v-0.2l94.5-55L84.2,185
		l-84,146.7L0.3,221.7z M0.4,442.7l-0.1-0.1V332.6l79.1,138.2c-4.7,2.8-8.5,6.7-11.3,11.4L0.4,442.7z M0.3,553.7v-0.1l67.8-39.5
		c2.7,4.7,6.6,8.6,11.3,11.4L0.3,663.7L0.3,553.7z M95,608.6v0.2l-0.1,0.1l-94.4,55l39.8-69.6l39.3-68.6c4.7,2.7,10,4.1,15.4,4.1
		V608.6z M95,529.5c-5.4,0-10.7-1.4-15.3-4.1l-0.1-0.1l-0.1-0.1c-9.5-5.6-15.4-15.9-15.4-27v-0.1c0-0.1,0-0.2,0-0.3
		c0.1-11,6-21.2,15.5-26.8c4.7-2.7,10-4.2,15.4-4.2h0.1c5.5,0,10.8,1.4,15.5,4.2c9.5,5.6,15.4,15.7,15.5,26.8v0c0,0.1,0,0.2,0,0.3
		h-0.1v0.1c0,11.1-5.8,21.4-15.4,27l-0.1,0.1l-0.1,0.1C105.8,528.1,100.5,529.5,95,529.5L95,529.5z M95.4,608.8l-0.1-0.1v-79
		c5.4,0,10.7-1.5,15.4-4.2l39.3,68.6l33.4,58.4l6.4,11.2L95.4,608.8z M190,663.7l-79.2-138.2c4.7-2.7,8.5-6.7,11.3-11.3l67.9,39.5
		l0,0.1V663.7z M189.9,553.3l-67.7-39.5c2.7-4.7,4.1-10.1,4.1-15.5l158.2,0l-94.4,55l-0.1,0.1L189.9,553.3z M190.2,553.6l94.5-55
		L274.1,517l-84,146.7V553.6z M285,608.7l-69.9,40.7l-24.7,14.4L285,498.4V608.7z M379.8,663.8l-17.5-10.2l-77-44.8l0-110.1
		L379.8,663.8z M339.9,402.1l-54.6,95.5V387.5l0.1-0.1l94.4-55L339.9,402.1z M339.9,262.1l33.4,58.4l6.4,11.2l-94.4-55l-0.1-0.1v-79
		c5.4,0,10.7-1.5,15.4-4.2L339.9,262.1z M316.1,165.8c0,0.1,0,0.2,0,0.3h-0.1v0.1c0,11.1-5.8,21.4-15.4,27l-0.1,0.1l-0.1,0.1
		c-9.5,5.5-21.3,5.5-30.8,0l-0.1-0.1l-0.1-0.1c-9.5-5.6-15.4-15.9-15.4-27v-0.1H254c0-0.1,0-0.2,0-0.3c0.1-11,6-21.2,15.5-26.8
		c4.7-2.7,10-4.2,15.5-4.2h0.1c5.5,0,10.8,1.5,15.5,4.2C310.2,144.6,316,154.7,316.1,165.8z M300.7,138.7c-4.7-2.7-10-4.1-15.4-4.2
		v-79l94.5-55L300.7,138.7z"/>
</g>
</svg>
