<svg id="Capa_1" data-name="Capa 1" xmlns="http://www.w3.org/2000/svg" viewBox="0 0 380 664"><defs><style>.cls-1{fill:none;}.cls-2{fill:#ddb459;}</style></defs><rect class="cls-1" width="380" height="664"/><path class="cls-2" d="M285,608.88,345.31,644l34.35,20H380v-.35L285.5,498.53,380,553.58v-.29l-94.38-55H380v-.25H285Zm.25-110.22,94.5,165.12-17.51-10.2-77-44.84Z"/><path class="cls-2" d="M379.66,0H285V.25h94.63L360.57,11.37,285,55.37v79.17H285a31,31,0,0,0-15.44,4.16l-66-115.37L190.41.47,285,55.54v-.29L249.77,34.76,190.53.25H285V0H0V111l.13-.07,94.74,55.16h.49l94.7-55.16,67.86,39.52a31.64,31.64,0,0,0-4.12,15.33c0,.09,0,.17,0,.25v.07H254c0-.1,0-.21,0-.32A31.27,31.27,0,0,1,269.53,139,30.84,30.84,0,0,1,285,134.8h.13A30.8,30.8,0,0,1,300.65,139a31.31,31.31,0,0,1,15.49,26.75c0,.11,0,.22,0,.32h-.06v.13a31.32,31.32,0,0,1-15.39,27l-.1.06-.12.08a30.72,30.72,0,0,1-30.77,0l-.12-.08-.1-.06a31.32,31.32,0,0,1-15.39-27v-.13H95v0H0v.25H94.63L.25,221.3h0l-.12.08L0,221.3H0v.29H0V331.67H0v.94H0V442.69H0V443l.13-.07L68,482.43a31.75,31.75,0,0,0-4.12,15.33c0,.08,0,.17,0,.25v.05H0v.25H63.85A31.72,31.72,0,0,0,68,513.84L.25,553.29h0l-.12.07L0,553.29H0V664H.59L95,609l.06,0,94.51,55h.93L285,609v-.08h0v-.2l-69.86,40.65L190.4,663.78,285,498.44v-.38H126.4V498c0-.08,0-.16,0-.25a31.68,31.68,0,0,0-4.12-15.32l67.86-39.53,94.74,55.16h.49L380,442.93v-.18l-94.56,55,81.34-142.14,13.16-23v-1L300.82,193.41a31.41,31.41,0,0,0,11.26-11.35L380,221.58v-.29l-67.79-39.45a31.83,31.83,0,0,0,4.13-15.53H380v-.25H316.4V166c0-.08,0-.16,0-.25a31.68,31.68,0,0,0-4.12-15.32L380,111v-.29l-.13.07h0L312.15,150.2a31.63,31.63,0,0,0-11.26-11.37l39.16-68.42L380,.6V0ZM.37,110.75h0l-.13-.07V.6L3.62,6.48,94.75,165.72ZM95,55.66V165.59h0L40.33,70.11h0L10.68,18.31.47.47l94.37,55h0l.13.07Zm.12-.36-.06,0L.59.25h189L95.09,55.3Zm.13,110.29h0V55.52l.13-.07h0l94.38-55L149.86,70.11h0Zm94.72-55.06v.14l-.13.07h0l-94.37,55L176.78,23.58,189.94.6ZM258,150.2l-67.73-39.45h0l-.12-.07V.6L269.3,138.84A31.52,31.52,0,0,0,258,150.2ZM379.6,332h-189L285.09,277Zm-110-138.46A30.89,30.89,0,0,0,285,197.71v79l-.13.07h0l-94.37,55,39.85-69.64h0Zm-.23-.12L190.25,331.65V221.58l67.85-39.52A31.68,31.68,0,0,0,269.36,193.42ZM95.28,166.66l94.5,165.12-17.51-10.2-77-44.84ZM95,387.24l-35.2-20.47L.59,332.27H95.08v0h94.58l-19.09,11.12-75.49,44v-.07Zm0,.29v79h0a31.13,31.13,0,0,0-15.44,4.16l-66-115.36L.47,332.49Zm.25,0,94.5-55L110.67,470.71a31.06,31.06,0,0,0-15.39-4.17ZM95.08,277v-.08h0v0L155.31,312l34.35,20H95v0H.59L95,277Zm0-.26L25.22,317.38.47,331.8,95,166.54Zm-94.78-55v-.15l94.5-55L84.21,185l-84,146.7Zm.12,221h0l-.13-.07V332.61L79.36,470.85A31.6,31.6,0,0,0,68.1,482.21Zm-.12,111v-.14L68.1,514.06a31.68,31.68,0,0,0,11.26,11.36L.25,663.65ZM95,608.59v.15l-.13.07h0l-94.37,55,39.85-69.64h0l39.26-68.6A30.89,30.89,0,0,0,95,529.71Zm.37.22h0l-.13-.07v-79a30.89,30.89,0,0,0,15.38-4.17l39.26,68.6h0l33.44,58.43,6.42,11.21Zm94.6-55.09V663.65L110.82,525.41a31.41,31.41,0,0,0,11.26-11.35l67.86,39.52ZM274.14,517,190.19,663.65V553.58l94.5-55.05Zm10.42-18.65-94.37,55h0l-.13.07-.12-.07h0l-67.73-39.45a31.83,31.83,0,0,0,4.13-15.53Zm-158.42-.57c0,.11,0,.22,0,.32h-.06v.13a31.32,31.32,0,0,1-15.39,27l-.1.06-.12.08a30.81,30.81,0,0,1-15.39,4.13H95a30.75,30.75,0,0,1-15.32-4.12l-.12-.08-.1-.06a31.32,31.32,0,0,1-15.39-27v-.11h0c0-.11,0-.21,0-.32A31.34,31.34,0,0,1,79.6,471,30.79,30.79,0,0,1,95,466.81h.13A30.8,30.8,0,0,1,110.65,471a31.31,31.31,0,0,1,15.49,26.75ZM190,442.53v.14l-.13.07h0L122.15,482.2a31.63,31.63,0,0,0-11.26-11.37l39.16-68.42L190,332.6Zm0-220.81V331.65L95.5,166.53,190,221.58Zm0-.43h0l-94.38-55H253.85A31.72,31.72,0,0,0,258,181.84l-67.73,39.45h0l-.12.07Zm.37,221.46h0l-.13-.07V332.6l3.37,5.88,91.13,159.24ZM285,387.66V497.59h0l-54.64-95.48h0l-29.64-51.8-10.21-17.84,94.37,55h0l.13.07Zm.12-.36-94.5-55.05h189L285.09,387.3Zm54.77,14.81h0l-54.64,95.48h0V387.52l.13-.07h0l94.38-55Zm0-140h0l33.44,58.43,6.42,11.21-94.38-55h0l-.13-.07v-79a30.89,30.89,0,0,0,15.38-4.17ZM300.67,138.71a31.06,31.06,0,0,0-15.39-4.17v-79l94.5-55Z"/></svg>